<svg width="1244" height="675" viewBox="0 0 1244 675" fill="none" xmlns="http://www.w3.org/2000/svg">
<path d="M0.599112 79.7012C0.434082 79.9226 0.479784 80.2359 0.701188 80.4009L4.30918 83.0902C4.53059 83.2553 4.84386 83.2096 5.00888 82.9882C5.17391 82.7668 5.12821 82.4535 4.90681 82.2885L1.6997 79.898L4.09019 76.6909C4.25522 76.4695 4.20952 76.1562 3.98812 75.9912C3.76671 75.8261 3.45345 75.8718 3.28842 76.0932L0.599112 79.7012ZM451.5 194.5L451.06 194.738L451.5 194.5ZM430.5 489L430.971 488.831L430.5 489ZM1294.5 502L1294.91 502.283L1294.5 502ZM1077.52 44.3611C1077.44 44.6264 1077.6 44.9036 1077.86 44.9803L1082.18 46.2304C1082.45 46.3072 1082.73 46.1543 1082.8 45.889C1082.88 45.6238 1082.73 45.3465 1082.46 45.2698L1078.62 44.1586L1079.73 40.316C1079.81 40.0508 1079.65 39.7735 1079.39 39.6968C1079.12 39.6201 1078.85 39.773 1078.77 40.0382L1077.52 44.3611ZM914.216 44.9511C914.465 44.8319 914.57 44.5334 914.451 44.2843L912.509 40.2248C912.39 39.9757 912.092 39.8703 911.843 39.9894C911.593 40.1086 911.488 40.4071 911.607 40.6563L913.333 44.2647L909.725 45.9907C909.476 46.1098 909.37 46.4084 909.489 46.6575C909.609 46.9066 909.907 47.012 910.156 46.8928L914.216 44.9511ZM28.1348 4.6585C27.9462 4.86018 27.9568 5.17658 28.1585 5.36521L31.4451 8.439C31.6468 8.62762 31.9632 8.61703 32.1518 8.41535C32.3404 8.21367 32.3298 7.89726 32.1281 7.70864L29.2067 4.97638L31.939 2.05495C32.1276 1.85327 32.117 1.53686 31.9153 1.34824C31.7136 1.15962 31.3972 1.1702 31.2086 1.37189L28.1348 4.6585ZM507.5 5L507.526 4.50069L507.5 5ZM1 80C1.07218 80.4948 1.07218 80.4948 1.07218 80.4948C1.07218 80.4948 1.07218 80.4948 1.07218 80.4948C1.07218 80.4948 1.07219 80.4948 1.07221 80.4948C1.07224 80.4948 1.07229 80.4948 1.07235 80.4948C1.07249 80.4948 1.0727 80.4947 1.07299 80.4947C1.07356 80.4946 1.07444 80.4945 1.07563 80.4943C1.078 80.494 1.0816 80.4934 1.08641 80.4927C1.09603 80.4913 1.11053 80.4893 1.12986 80.4865C1.16853 80.4809 1.22656 80.4726 1.3037 80.4616C1.45796 80.4397 1.68865 80.4072 1.99373 80.365L1.85673 79.3744C1.55039 79.4168 1.31846 79.4495 1.16297 79.4716C1.08522 79.4826 1.02658 79.491 0.987309 79.4967C0.967671 79.4995 0.952873 79.5016 0.942948 79.5031C0.937986 79.5038 0.934241 79.5043 0.931719 79.5047C0.930457 79.5049 0.929502 79.505 0.928852 79.5051C0.928527 79.5052 0.928278 79.5052 0.928107 79.5052C0.928021 79.5053 0.927954 79.5053 0.927906 79.5053C0.927882 79.5053 0.927863 79.5053 0.927849 79.5053C0.927842 79.5053 0.927835 79.5053 0.927831 79.5053C0.927826 79.5053 0.927821 79.5053 1 80ZM14.6061 78.8015C15.2927 78.7235 16.0032 78.6438 16.7374 78.5625L16.6273 77.5686C15.8923 77.65 15.1808 77.7298 14.4933 77.8079L14.6061 78.8015ZM29.3268 77.2658C29.9782 77.2035 30.6393 77.1409 31.3101 77.0781L31.217 76.0825C30.5455 76.1453 29.8836 76.2079 29.2316 76.2704L29.3268 77.2658ZM44.1702 75.9623C44.8488 75.9079 45.534 75.8537 46.2257 75.7997L46.1479 74.8028C45.4554 74.8568 44.7696 74.9111 44.0903 74.9655L44.1702 75.9623ZM59.0202 74.8818C59.6513 74.8405 60.2865 74.7995 60.9256 74.7588L60.8621 73.7608C60.2223 73.8015 59.5866 73.8426 58.9549 73.8839L59.0202 74.8818ZM73.7768 74.0208C74.4159 73.988 75.0581 73.9557 75.7034 73.9238L75.6541 72.9251C75.0082 72.957 74.3653 72.9893 73.7257 73.0221L73.7768 74.0208ZM88.5808 73.3676C89.223 73.3439 89.8677 73.3206 90.5148 73.2979L90.4797 72.2985C89.832 72.3213 89.1867 72.3445 88.5439 72.3683L88.5808 73.3676ZM103.412 72.9262C104.055 72.9117 104.7 72.8978 105.347 72.8845L105.326 71.8847C104.679 71.898 104.033 71.9119 103.389 71.9264L103.412 72.9262ZM118.199 72.7022C118.862 72.6971 119.527 72.6926 120.194 72.6888L120.188 71.6888C119.521 71.6926 118.855 71.6971 118.191 71.7022L118.199 72.7022ZM132.982 72.7003C133.647 72.7053 134.313 72.711 134.981 72.7175L134.991 71.7175C134.322 71.7111 133.655 71.7053 132.989 71.7003L132.982 72.7003ZM147.781 72.929C148.442 72.9445 149.103 72.9607 149.766 72.9777L149.791 71.978C149.128 71.961 148.466 71.9448 147.805 71.9293L147.781 72.929ZM162.595 73.3992C163.251 73.4256 163.908 73.4528 164.567 73.4807L164.609 72.4816C163.95 72.4536 163.292 72.4264 162.635 72.4L162.595 73.3992ZM177.412 74.1235C178.065 74.1613 178.719 74.1999 179.374 74.2393L179.434 73.2411C178.779 73.2016 178.124 73.163 177.469 73.1252L177.412 74.1235ZM192.217 75.1156C192.869 75.1654 193.521 75.2161 194.174 75.2676L194.253 74.2707C193.599 74.2191 192.946 74.1684 192.293 74.1185L192.217 75.1156ZM206.95 76.3859C207.607 76.4491 208.265 76.5133 208.923 76.5785L209.021 75.5834C208.362 75.5181 207.704 75.4538 207.045 75.3905L206.95 76.3859ZM221.676 77.9577C222.33 78.0345 222.984 78.1123 223.638 78.1911L223.758 77.1983C223.102 77.1194 222.447 77.0414 221.793 76.9645L221.676 77.9577ZM236.373 79.8505C237.024 79.9419 237.676 80.0344 238.327 80.1279L238.469 79.1381C237.817 79.0444 237.165 78.9518 236.512 78.8602L236.373 79.8505ZM251.017 82.0854C251.667 82.1927 252.316 82.301 252.965 82.4105L253.131 81.4244C252.481 81.3148 251.831 81.2062 251.18 81.0988L251.017 82.0854ZM265.594 84.6872C266.24 84.8113 266.886 84.9366 267.531 85.0631L267.723 84.0818C267.077 83.9551 266.43 83.8295 265.783 83.7051L265.594 84.6872ZM280.101 87.6868C280.743 87.8293 281.385 87.973 282.026 88.118L282.247 87.1425C281.604 86.9973 280.961 86.8533 280.318 86.7106L280.101 87.6868ZM294.508 91.1144C295.147 91.2769 295.785 91.4408 296.422 91.6059L296.673 90.6379C296.034 90.4724 295.395 90.3082 294.755 90.1453L294.508 91.1144ZM308.782 95.0024C309.417 95.187 310.05 95.3729 310.683 95.5603L310.967 94.6015C310.333 94.4136 309.697 94.2272 309.061 94.0422L308.782 95.0024ZM322.916 99.3964C323.538 99.6026 324.158 99.8102 324.778 100.019L325.098 99.0719C324.476 98.8622 323.854 98.654 323.231 98.4473L322.916 99.3964ZM336.882 104.344C337.495 104.576 338.108 104.81 338.72 105.045L339.079 104.112C338.465 103.876 337.851 103.641 337.235 103.409L336.882 104.344ZM350.608 109.885C351.213 110.145 351.816 110.407 352.418 110.671L352.819 109.755C352.215 109.49 351.61 109.227 351.004 108.966L350.608 109.885ZM364.04 116.066C364.633 116.357 365.224 116.65 365.813 116.945L366.261 116.051C365.669 115.755 365.076 115.461 364.482 115.169L364.04 116.066ZM377.114 122.941C377.691 123.266 378.267 123.592 378.84 123.921L379.337 123.053C378.761 122.724 378.184 122.396 377.605 122.07L377.114 122.941ZM389.782 130.581C390.331 130.936 390.878 131.293 391.422 131.652L391.972 130.817C391.425 130.456 390.876 130.098 390.325 129.741L389.782 130.581ZM401.93 139.026C402.455 139.419 402.977 139.813 403.498 140.21L404.104 139.415C403.581 139.016 403.056 138.62 402.529 138.226L401.93 139.026ZM413.433 148.305C413.928 148.736 414.42 149.17 414.911 149.606L415.575 148.859C415.083 148.42 414.587 147.985 414.09 147.551L413.433 148.305ZM424.171 158.441C424.63 158.911 425.086 159.383 425.54 159.858L426.263 159.168C425.807 158.69 425.348 158.215 424.887 157.742L424.171 158.441ZM434.021 169.435C434.437 169.943 434.851 170.452 435.261 170.965L436.041 170.34C435.629 169.824 435.213 169.312 434.795 168.801L434.021 169.435ZM442.864 181.267C443.231 181.807 443.594 182.35 443.955 182.896L444.789 182.344C444.426 181.795 444.06 181.249 443.691 180.705L442.864 181.267ZM450.584 193.867C450.744 194.157 450.903 194.447 451.06 194.738L451.94 194.262C451.781 193.969 451.621 193.676 451.461 193.385L450.584 193.867ZM451.06 194.738C451.226 195.043 451.39 195.347 451.553 195.651L452.434 195.177C452.27 194.873 452.105 194.568 451.94 194.262L451.06 194.738ZM457.417 207.148C457.704 207.744 457.986 208.337 458.265 208.928L459.169 208.501C458.89 207.908 458.606 207.313 458.318 206.715L457.417 207.148ZM463.427 220.704C463.687 221.346 463.941 221.984 464.19 222.619L465.121 222.254C464.87 221.616 464.615 220.975 464.355 220.33L463.427 220.704ZM468.47 234.781C468.671 235.428 468.865 236.071 469.055 236.711L470.014 236.427C469.823 235.783 469.627 235.136 469.425 234.484L468.47 234.781ZM472.146 249.193C472.272 249.837 472.393 250.477 472.508 251.114L473.492 250.936C473.376 250.295 473.255 249.649 473.127 249L472.146 249.193ZM474.062 263.821C474.104 264.497 474.139 265.169 474.166 265.837L475.166 265.795C475.138 265.121 475.103 264.442 475.061 263.759L474.062 263.821ZM473.826 278.66C473.764 279.307 473.694 279.951 473.618 280.59L474.611 280.708C474.688 280.062 474.758 279.411 474.822 278.756L473.826 278.66ZM471.182 293.223C471.012 293.859 470.835 294.49 470.653 295.118L471.613 295.397C471.798 294.763 471.976 294.124 472.148 293.482L471.182 293.223ZM466.286 307.202C466.026 307.808 465.76 308.412 465.489 309.013L466.401 309.423C466.674 308.817 466.942 308.209 467.205 307.597L466.286 307.202ZM459.675 320.494C459.353 321.071 459.028 321.647 458.7 322.221L459.569 322.717C459.898 322.14 460.225 321.561 460.548 320.981L459.675 320.494ZM452.04 333.267C451.689 333.827 451.336 334.387 450.982 334.947L451.827 335.481C452.182 334.92 452.535 334.359 452.887 333.798L452.04 333.267ZM444.049 345.854C443.696 346.413 443.343 346.974 442.991 347.536L443.838 348.067C444.19 347.506 444.542 346.946 444.895 346.387L444.049 345.854ZM436.302 358.62C435.974 359.193 435.647 359.768 435.322 360.346L436.194 360.836C436.517 360.261 436.842 359.688 437.17 359.117L436.302 358.62ZM429.358 371.858C429.077 372.456 428.799 373.057 428.524 373.661L429.435 374.075C429.707 373.475 429.983 372.878 430.263 372.284L429.358 371.858ZM423.728 385.696C423.511 386.329 423.299 386.966 423.092 387.607L424.043 387.915C424.249 387.279 424.459 386.647 424.674 386.019L423.728 385.696ZM419.781 400.11C419.647 400.758 419.517 401.41 419.393 402.067L420.376 402.252C420.499 401.602 420.627 400.955 420.76 400.313L419.781 400.11ZM417.682 414.963C417.631 415.616 417.585 416.272 417.544 416.933L418.542 416.995C418.582 416.339 418.628 415.688 418.679 415.041L417.682 414.963ZM417.388 429.85C417.412 430.508 417.44 431.171 417.474 431.837L418.472 431.787C418.439 431.125 418.411 430.468 418.387 429.814L417.388 429.85ZM418.683 444.74C418.773 445.407 418.868 446.078 418.968 446.753L419.957 446.607C419.858 445.936 419.764 445.269 419.674 444.606L418.683 444.74ZM421.325 459.494C421.471 460.156 421.621 460.821 421.776 461.49L422.75 461.265C422.596 460.599 422.447 459.937 422.301 459.278L421.325 459.494ZM425.064 473.996C425.248 474.624 425.436 475.255 425.628 475.889L426.585 475.6C426.394 474.968 426.207 474.34 426.024 473.714L425.064 473.996ZM429.68 488.193C429.796 488.518 429.912 488.843 430.029 489.169L430.971 488.831C430.854 488.506 430.738 488.182 430.623 487.858L429.68 488.193ZM430.029 489.169C430.141 489.479 430.254 489.788 430.368 490.098L431.306 489.751C431.193 489.445 431.081 489.138 430.971 488.831L430.029 489.169ZM435.525 502.033C435.825 502.638 436.13 503.243 436.441 503.846L437.33 503.388C437.022 502.789 436.718 502.189 436.421 501.589L435.525 502.033ZM442.926 515.09C443.286 515.654 443.651 516.216 444.02 516.777L444.856 516.227C444.489 515.67 444.126 515.111 443.769 514.552L442.926 515.09ZM451.654 527.393C452.059 527.911 452.468 528.429 452.881 528.945L453.662 528.321C453.251 527.807 452.845 527.293 452.442 526.777L451.654 527.393ZM461.434 538.895C461.897 539.397 462.363 539.898 462.833 540.398L463.562 539.713C463.094 539.216 462.63 538.717 462.17 538.217L461.434 538.895ZM471.931 549.509C472.419 549.97 472.911 550.43 473.405 550.89L474.086 550.157C473.593 549.7 473.104 549.241 472.618 548.782L471.931 549.509ZM483.209 559.518C483.714 559.94 484.221 560.361 484.732 560.781L485.367 560.009C484.859 559.591 484.353 559.171 483.85 558.751L483.209 559.518ZM495.029 568.859C495.574 569.268 496.123 569.675 496.673 570.082L497.267 569.277C496.718 568.872 496.172 568.466 495.628 568.059L495.029 568.859ZM507.205 577.528C507.756 577.902 508.31 578.275 508.866 578.647L509.422 577.816C508.868 577.445 508.316 577.073 507.766 576.701L507.205 577.528ZM519.943 585.765C520.498 586.108 521.055 586.45 521.615 586.791L522.135 585.937C521.578 585.597 521.022 585.256 520.468 584.914L519.943 585.765ZM532.761 593.343C533.345 593.674 533.931 594.004 534.519 594.333L535.007 593.46C534.421 593.132 533.837 592.803 533.254 592.473L532.761 593.343ZM546.027 600.55C546.61 600.854 547.194 601.157 547.781 601.459L548.239 600.571C547.654 600.269 547.071 599.966 546.489 599.663L546.027 600.55ZM559.411 607.256C560.017 607.548 560.625 607.839 561.235 608.13L561.665 607.227C561.057 606.937 560.45 606.646 559.845 606.355L559.411 607.256ZM573.068 613.584C573.671 613.852 574.275 614.12 574.88 614.388L575.284 613.473C574.68 613.206 574.077 612.939 573.475 612.67L573.068 613.584ZM586.854 619.502C587.477 619.76 588.101 620.016 588.726 620.272L589.104 619.346C588.48 619.091 587.858 618.835 587.236 618.578L586.854 619.502ZM600.821 625.064C601.439 625.301 602.057 625.537 602.677 625.773L603.032 624.838C602.413 624.603 601.796 624.367 601.179 624.131L600.821 625.064ZM614.899 630.268C615.533 630.493 616.168 630.718 616.804 630.942L617.136 629.999C616.501 629.775 615.867 629.551 615.235 629.325L614.899 630.268ZM629.122 635.145C629.75 635.353 630.38 635.56 631.01 635.766L631.321 634.815C630.691 634.609 630.063 634.403 629.436 634.196L629.122 635.145ZM643.415 639.69C644.057 639.887 644.699 640.082 645.343 640.277L645.633 639.32C644.99 639.126 644.348 638.93 643.707 638.734L643.415 639.69ZM657.853 643.941C658.49 644.122 659.128 644.301 659.766 644.48L660.036 643.517C659.398 643.339 658.762 643.159 658.126 642.979L657.853 643.941ZM672.308 647.874C672.956 648.043 673.605 648.212 674.254 648.38L674.504 647.411C673.856 647.244 673.208 647.076 672.561 646.906L672.308 647.874ZM686.928 651.539C687.571 651.693 688.215 651.847 688.86 652L689.091 651.027C688.447 650.874 687.804 650.721 687.162 650.566L686.928 651.539ZM701.509 654.894C702.161 655.037 702.815 655.18 703.468 655.322L703.681 654.345C703.028 654.203 702.375 654.061 701.724 653.917L701.509 654.894ZM716.278 657.998C716.926 658.128 717.576 658.258 718.225 658.386L718.42 657.405C717.771 657.277 717.122 657.148 716.474 657.018L716.278 657.998ZM730.96 660.802C731.616 660.921 732.273 661.039 732.93 661.157L733.106 660.172C732.45 660.055 731.794 659.937 731.138 659.818L730.96 660.802ZM745.802 663.356C746.465 663.464 747.128 663.572 747.792 663.678L747.951 662.691C747.287 662.584 746.625 662.477 745.963 662.369L745.802 663.356ZM760.611 665.632C761.27 665.727 761.93 665.822 762.59 665.916L762.731 664.926C762.072 664.832 761.413 664.738 760.754 664.642L760.611 665.632ZM775.503 667.65C776.168 667.734 776.833 667.818 777.498 667.9L777.621 666.908C776.956 666.825 776.292 666.742 775.629 666.658L775.503 667.65ZM790.418 669.404C791.08 669.476 791.742 669.547 792.404 669.617L792.509 668.623C791.848 668.553 791.187 668.482 790.526 668.41L790.418 669.404ZM805.351 670.894C806.016 670.955 806.682 671.014 807.348 671.073L807.436 670.077C806.771 670.018 806.106 669.959 805.441 669.898L805.351 670.894ZM820.336 672.124C821 672.172 821.664 672.22 822.328 672.267L822.399 671.27C821.736 671.223 821.072 671.175 820.409 671.126L820.336 672.124ZM835.304 673.087C835.97 673.124 836.637 673.16 837.303 673.196L837.356 672.197C836.69 672.162 836.025 672.126 835.359 672.089L835.304 673.087ZM850.32 673.787C850.987 673.812 851.654 673.837 852.322 673.86L852.357 672.861C851.691 672.837 851.024 672.813 850.358 672.788L850.32 673.787ZM865.319 674.218C865.986 674.232 866.653 674.244 867.321 674.256L867.338 673.256C866.672 673.244 866.005 673.232 865.339 673.219L865.319 674.218ZM880.336 674.38C881.003 674.381 881.671 674.381 882.339 674.381L882.338 673.381C881.671 673.381 881.004 673.381 880.338 673.38L880.336 674.38ZM895.355 674.267C896.022 674.256 896.689 674.244 897.357 674.231L897.338 673.231C896.671 673.244 896.005 673.256 895.338 673.267L895.355 674.267ZM910.364 673.876C911.031 673.852 911.697 673.828 912.364 673.803L912.326 672.803C911.66 672.829 910.995 672.853 910.329 672.877L910.364 673.876ZM925.364 673.202C926.032 673.166 926.699 673.128 927.366 673.09L927.309 672.092C926.643 672.13 925.976 672.167 925.31 672.203L925.364 673.202ZM940.357 672.239C941.022 672.19 941.687 672.139 942.352 672.088L942.276 671.091C941.612 671.142 940.947 671.192 940.283 671.242L940.357 672.239ZM955.3 670.983C955.966 670.921 956.632 670.857 957.298 670.793L957.202 669.797C956.537 669.862 955.872 669.925 955.206 669.988L955.3 670.983ZM970.26 669.422C970.924 669.346 971.587 669.269 972.25 669.191L972.133 668.198C971.471 668.275 970.809 668.352 970.146 668.428L970.26 669.422ZM985.144 667.556C985.803 667.466 986.463 667.375 987.122 667.284L986.984 666.293C986.326 666.385 985.668 666.475 985.009 666.565L985.144 667.556ZM1000.02 665.368C1000.68 665.264 1001.34 665.158 1002 665.052L1001.84 664.065C1001.18 664.171 1000.52 664.276 999.86 664.381L1000.02 665.368ZM1014.82 662.857C1015.47 662.739 1016.13 662.619 1016.78 662.498L1016.6 661.515C1015.95 661.635 1015.29 661.755 1014.64 661.873L1014.82 662.857ZM1029.56 660.011C1030.21 659.877 1030.87 659.741 1031.52 659.604L1031.32 658.626C1030.67 658.762 1030.01 658.897 1029.36 659.032L1029.56 660.011ZM1044.25 656.815C1044.9 656.665 1045.55 656.515 1046.19 656.363L1045.97 655.39C1045.32 655.541 1044.67 655.691 1044.02 655.84L1044.25 656.815ZM1058.81 653.273C1059.46 653.107 1060.11 652.939 1060.76 652.77L1060.5 651.802C1059.86 651.971 1059.21 652.138 1058.56 652.305L1058.81 653.273ZM1073.34 649.345C1073.98 649.163 1074.63 648.979 1075.27 648.795L1074.99 647.834C1074.35 648.018 1073.71 648.201 1073.07 648.383L1073.34 649.345ZM1087.69 645.061C1088.32 644.861 1088.96 644.661 1089.6 644.459L1089.29 643.506C1088.66 643.707 1088.02 643.907 1087.39 644.107L1087.69 645.061ZM1102 640.356C1102.63 640.138 1103.26 639.919 1103.89 639.699L1103.56 638.755C1102.94 638.974 1102.31 639.193 1101.67 639.41L1102 640.356ZM1116.1 635.269C1116.72 635.035 1117.34 634.799 1117.96 634.562L1117.61 633.628C1116.99 633.865 1116.37 634.1 1115.75 634.334L1116.1 635.269ZM1130.09 629.745C1130.71 629.49 1131.33 629.233 1131.95 628.976L1131.56 628.053C1130.95 628.31 1130.33 628.566 1129.71 628.821L1130.09 629.745ZM1143.87 623.803C1144.48 623.53 1145.09 623.256 1145.69 622.98L1145.28 622.07C1144.67 622.345 1144.07 622.619 1143.46 622.891L1143.87 623.803ZM1157.47 617.409C1158.07 617.114 1158.67 616.818 1159.27 616.52L1158.83 615.624C1158.23 615.921 1157.63 616.217 1157.03 616.511L1157.47 617.409ZM1170.84 610.558C1171.43 610.244 1172.02 609.929 1172.6 609.612L1172.12 608.733C1171.54 609.049 1170.96 609.363 1170.37 609.676L1170.84 610.558ZM1183.95 603.245C1184.53 602.908 1185.11 602.569 1185.68 602.23L1185.18 601.368C1184.6 601.707 1184.02 602.044 1183.45 602.381L1183.95 603.245ZM1196.8 595.439C1197.36 595.082 1197.92 594.724 1198.48 594.364L1197.95 593.522C1197.39 593.881 1196.83 594.238 1196.26 594.594L1196.8 595.439ZM1209.31 587.162C1209.86 586.782 1210.41 586.4 1210.96 586.017L1210.39 585.197C1209.84 585.579 1209.29 585.96 1208.74 586.339L1209.31 587.162ZM1221.51 578.368C1222.05 577.967 1222.58 577.565 1223.11 577.161L1222.5 576.365C1221.97 576.768 1221.44 577.169 1220.91 577.569L1221.51 578.368ZM1233.31 569.097C1233.82 568.673 1234.34 568.247 1234.86 567.819L1234.22 567.05C1233.7 567.476 1233.19 567.901 1232.67 568.324L1233.31 569.097ZM1244.72 559.305C1245.21 558.859 1245.71 558.412 1246.2 557.963L1245.53 557.223C1245.04 557.67 1244.54 558.116 1244.05 558.561L1244.72 559.305ZM1255.66 549.029C1256.14 548.561 1256.62 548.092 1257.09 547.621L1256.38 546.912C1255.91 547.381 1255.44 547.849 1254.96 548.315L1255.66 549.029ZM1266.13 538.258C1266.59 537.769 1267.04 537.278 1267.49 536.785L1266.76 536.11C1266.31 536.601 1265.85 537.09 1265.4 537.578L1266.13 538.258ZM1276.1 526.994C1276.53 526.486 1276.96 525.976 1277.38 525.465L1276.61 524.825C1276.19 525.335 1275.76 525.843 1275.34 526.35L1276.1 526.994ZM1285.49 515.305C1285.89 514.774 1286.3 514.242 1286.7 513.708L1285.9 513.106C1285.5 513.638 1285.1 514.169 1284.69 514.698L1285.49 515.305ZM1294.34 503.114C1294.53 502.837 1294.72 502.56 1294.91 502.283L1294.09 501.717C1293.9 501.994 1293.71 502.27 1293.52 502.546L1294.34 503.114ZM1294.91 502.283C1295.1 502.003 1295.3 501.723 1295.49 501.444L1294.66 500.881C1294.47 501.16 1294.28 501.439 1294.09 501.717L1294.91 502.283ZM1302.63 490.541C1302.98 489.982 1303.33 489.424 1303.68 488.865L1302.83 488.336C1302.48 488.894 1302.13 489.451 1301.78 490.008L1302.63 490.541ZM1310.19 477.967C1310.52 477.38 1310.86 476.794 1311.19 476.207L1310.32 475.715C1309.99 476.3 1309.66 476.885 1309.32 477.47L1310.19 477.967ZM1317.35 464.778C1317.65 464.192 1317.95 463.607 1318.25 463.021L1317.36 462.57C1317.06 463.153 1316.76 463.737 1316.46 464.32L1317.35 464.778ZM1323.79 451.508C1324.07 450.897 1324.35 450.286 1324.62 449.675L1323.71 449.266C1323.44 449.874 1323.16 450.483 1322.88 451.092L1323.79 451.508ZM1329.66 437.788C1329.9 437.179 1330.14 436.571 1330.38 435.962L1329.45 435.598C1329.21 436.204 1328.97 436.811 1328.73 437.417L1329.66 437.788ZM1334.8 423.879C1335.02 423.248 1335.23 422.618 1335.44 421.988L1334.49 421.672C1334.28 422.299 1334.07 422.927 1333.86 423.556L1334.8 423.879ZM1339.23 409.732C1339.41 409.106 1339.58 408.479 1339.75 407.853L1338.79 407.586C1338.62 408.21 1338.44 408.835 1338.27 409.459L1339.23 409.732ZM1342.91 395.296C1343.06 394.651 1343.2 394.007 1343.35 393.363L1342.37 393.149C1342.23 393.791 1342.08 394.433 1341.94 395.075L1342.91 395.296ZM1345.79 380.787C1345.91 380.129 1346.02 379.471 1346.12 378.814L1345.14 378.653C1345.03 379.308 1344.92 379.964 1344.81 380.62L1345.79 380.787ZM1347.89 366.043C1347.96 365.39 1348.03 364.738 1348.1 364.087L1347.11 363.981C1347.04 364.63 1346.97 365.28 1346.89 365.93L1347.89 366.043ZM1349.15 351.239C1349.19 350.578 1349.23 349.917 1349.26 349.257L1348.26 349.207C1348.23 349.865 1348.19 350.523 1348.15 351.182L1349.15 351.239ZM1349.59 336.438C1349.59 335.772 1349.59 335.106 1349.59 334.441L1348.59 334.447C1348.59 335.109 1348.59 335.772 1348.59 336.436L1349.59 336.438ZM1349.2 321.548C1349.17 320.891 1349.13 320.234 1349.09 319.578L1348.09 319.639C1348.13 320.293 1348.17 320.947 1348.21 321.602L1349.2 321.548ZM1348 306.744C1347.93 306.086 1347.86 305.429 1347.78 304.773L1346.79 304.888C1346.86 305.542 1346.94 306.197 1347.01 306.852L1348 306.744ZM1346 292.051C1345.89 291.396 1345.78 290.742 1345.67 290.088L1344.69 290.256C1344.8 290.908 1344.91 291.56 1345.01 292.212L1346 292.051ZM1343.21 277.437C1343.07 276.794 1342.93 276.151 1342.79 275.508L1341.81 275.728C1341.95 276.368 1342.1 277.009 1342.24 277.651L1343.21 277.437ZM1339.67 263.009C1339.5 262.371 1339.32 261.734 1339.15 261.099L1338.18 261.368C1338.36 262.002 1338.54 262.636 1338.71 263.272L1339.67 263.009ZM1335.41 248.794C1335.21 248.164 1335 247.535 1334.79 246.907L1333.84 247.224C1334.05 247.85 1334.26 248.477 1334.46 249.104L1335.41 248.794ZM1330.45 234.783C1330.21 234.168 1329.98 233.553 1329.74 232.939L1328.81 233.302C1329.04 233.914 1329.28 234.526 1329.51 235.14L1330.45 234.783ZM1324.82 221.029C1324.56 220.424 1324.29 219.82 1324.03 219.216L1323.11 219.622C1323.38 220.224 1323.64 220.826 1323.91 221.429L1324.82 221.029ZM1318.57 207.564C1318.28 206.97 1317.99 206.377 1317.69 205.785L1316.8 206.232C1317.09 206.822 1317.38 207.413 1317.67 208.005L1318.57 207.564ZM1311.72 194.389C1311.4 193.812 1311.08 193.236 1310.76 192.662L1309.89 193.148C1310.21 193.721 1310.53 194.295 1310.84 194.87L1311.72 194.389ZM1304.28 181.513C1303.94 180.949 1303.6 180.387 1303.25 179.825L1302.4 180.348C1302.75 180.908 1303.09 181.47 1303.43 182.032L1304.28 181.513ZM1296.32 168.981C1295.95 168.43 1295.58 167.88 1295.21 167.332L1294.38 167.891C1294.75 168.438 1295.12 168.986 1295.48 169.535L1296.32 168.981ZM1287.84 156.812C1287.45 156.274 1287.06 155.738 1286.67 155.204L1285.86 155.796C1286.25 156.33 1286.64 156.864 1287.03 157.4L1287.84 156.812ZM1278.85 144.963C1278.44 144.447 1278.03 143.933 1277.62 143.42L1276.84 144.045C1277.25 144.556 1277.65 145.069 1278.06 145.583L1278.85 144.963ZM1269.38 133.5C1268.95 132.999 1268.52 132.5 1268.08 132.003L1267.33 132.659C1267.76 133.155 1268.19 133.653 1268.62 134.152L1269.38 133.5ZM1259.47 122.448C1259.02 121.963 1258.57 121.479 1258.11 120.997L1257.38 121.684C1257.84 122.164 1258.29 122.647 1258.74 123.131L1259.47 122.448ZM1249.14 111.823C1248.67 111.356 1248.19 110.892 1247.72 110.429L1247.02 111.145C1247.49 111.606 1247.97 112.069 1248.44 112.534L1249.14 111.823ZM1238.32 101.584C1237.84 101.143 1237.35 100.704 1236.87 100.267L1236.2 101.011C1236.68 101.447 1237.17 101.885 1237.65 102.325L1238.32 101.584ZM1227.1 91.8249C1226.59 91.4028 1226.09 90.9829 1225.58 90.5651L1224.94 91.3375C1225.45 91.754 1225.95 92.1727 1226.46 92.5935L1227.1 91.8249ZM1215.48 82.5801C1214.95 82.1785 1214.42 81.7792 1213.89 81.3823L1213.29 82.1825C1213.82 82.5781 1214.34 82.9762 1214.87 83.3766L1215.48 82.5801ZM1203.46 73.8929C1202.91 73.5138 1202.35 73.1373 1201.8 72.7634L1201.24 73.5914C1201.79 73.964 1202.34 74.3393 1202.89 74.7172L1203.46 73.8929ZM1191.04 65.8156C1190.47 65.4622 1189.89 65.1118 1189.32 64.7644L1188.8 65.6203C1189.37 65.9664 1189.95 66.3155 1190.52 66.6677L1191.04 65.8156ZM1178.14 58.3738C1177.57 58.0655 1176.99 57.7604 1176.42 57.4585L1175.96 58.3426C1176.52 58.6433 1177.09 58.9471 1177.66 59.2541L1178.14 58.3738ZM1164.82 51.7261C1164.23 51.4551 1163.64 51.1877 1163.05 50.9239L1162.64 51.8365C1163.23 52.0991 1163.81 52.3653 1164.4 52.635L1164.82 51.7261ZM1151.08 46.0174C1150.47 45.7913 1149.86 45.5694 1149.25 45.3516L1148.92 46.2928C1149.52 46.5093 1150.12 46.7301 1150.73 46.9549L1151.08 46.0174ZM1136.93 41.4573C1136.3 41.2877 1135.68 41.123 1135.06 40.9632L1134.81 41.9317C1135.43 42.0904 1136.05 42.254 1136.67 42.4224L1136.93 41.4573ZM1122.41 38.3563C1121.75 38.2556 1121.09 38.1613 1120.43 38.0733L1120.3 39.0645C1120.95 39.1516 1121.6 39.2451 1122.26 39.3449L1122.41 38.3563ZM1107.53 37.1754C1106.85 37.1755 1106.18 37.1837 1105.51 37.2002L1105.53 38.1999C1106.19 38.1836 1106.86 38.1755 1107.53 38.1754L1107.53 37.1754ZM1092.66 38.6407C1092 38.7776 1091.36 38.9243 1090.72 39.0808L1090.96 40.0521C1091.59 39.8983 1092.22 39.754 1092.86 39.6193L1092.66 38.6407ZM1078.63 43.5948C1078.34 43.7478 1078.05 43.9036 1077.76 44.0621L1078.24 44.9379C1078.52 44.7826 1078.81 44.6301 1079.09 44.4803L1078.63 43.5948ZM28.5 5.00003C28.5167 5.49975 28.5167 5.49975 28.5167 5.49975C28.5167 5.49975 28.5167 5.49975 28.5167 5.49975C28.5167 5.49975 28.5168 5.49975 28.5168 5.49975C28.5168 5.49975 28.5169 5.49974 28.5169 5.49974C28.5171 5.49974 28.5173 5.49973 28.5176 5.49972C28.5183 5.4997 28.5192 5.49967 28.5205 5.49962C28.523 5.49954 28.5267 5.49941 28.5317 5.49925C28.5417 5.49891 28.5567 5.49841 28.5767 5.49775C28.6167 5.49642 28.6765 5.49444 28.756 5.49182C28.915 5.48657 29.1526 5.47876 29.467 5.46854L29.4345 4.46907C29.1199 4.4793 28.8822 4.48711 28.723 4.49236C28.6434 4.49499 28.5835 4.49697 28.5435 4.4983C28.5235 4.49897 28.5084 4.49947 28.4984 4.4998C28.4934 4.49997 28.4896 4.5001 28.4871 4.50018C28.4858 4.50022 28.4849 4.50025 28.4842 4.50028C28.4839 4.50029 28.4837 4.50029 28.4835 4.5003C28.4834 4.5003 28.4834 4.5003 28.4833 4.50031C28.4833 4.50031 28.4833 4.50031 28.4833 4.50031C28.4833 4.50031 28.4833 4.50031 28.4833 4.50031C28.4833 4.50031 28.4833 4.50031 28.5 5.00003ZM42.3932 5.07041C43.012 5.05212 43.65 5.03335 44.307 5.01413L44.2778 4.01455C43.6206 4.03378 42.9825 4.05255 42.3637 4.07084L42.3932 5.07041ZM57.403 4.64297C58.0316 4.6257 58.6693 4.60825 59.3161 4.59063L59.2888 3.591C58.642 3.60862 58.0042 3.62607 57.3756 3.64335L57.403 4.64297ZM72.2706 4.24765C72.9407 4.23041 73.6175 4.21307 74.3008 4.19564L74.2753 3.19596C73.5919 3.21339 72.9151 3.23073 72.2448 3.24798L72.2706 4.24765ZM87.3164 3.8729C87.9933 3.85658 88.6751 3.84022 89.3616 3.82383L89.3377 2.82411C88.6511 2.84051 87.9693 2.85687 87.2923 2.87319L87.3164 3.8729ZM102.335 3.52272C102.979 3.50822 103.626 3.4937 104.276 3.47917L104.254 2.47942C103.604 2.49395 102.957 2.50847 102.313 2.52298L102.335 3.52272ZM117.279 3.1973C117.928 3.18366 118.58 3.17002 119.234 3.15639L119.213 2.15661C118.559 2.17024 117.907 2.18388 117.258 2.19752L117.279 3.1973ZM132.25 2.89394C132.901 2.88123 133.555 2.86855 134.21 2.85588L134.191 1.85607C133.535 1.86874 132.882 1.88142 132.23 1.89413L132.25 2.89394ZM147.237 2.61293C147.889 2.6012 148.543 2.58951 149.198 2.57785L149.18 1.57801C148.525 1.58967 147.871 1.60136 147.219 1.61309L147.237 2.61293ZM162.206 2.35508C162.868 2.34419 163.531 2.33334 164.196 2.32253L164.18 1.32266C163.515 1.33347 162.851 1.34432 162.19 1.35521L162.206 2.35508ZM177.145 2.12079C177.819 2.11075 178.494 2.10076 179.171 2.09082L179.156 1.09093C178.479 1.10087 177.804 1.11086 177.131 1.1209L177.145 2.12079ZM192.098 1.90979C192.768 1.90088 193.438 1.89203 194.11 1.88324L194.096 0.883323C193.425 0.892118 192.754 0.900971 192.085 0.909881L192.098 1.90979ZM207.068 1.7227C207.734 1.71493 208.4 1.70722 209.068 1.69958L209.056 0.699641C208.389 0.707287 207.722 0.714997 207.057 0.722768L207.068 1.7227ZM222.055 1.5603C222.718 1.55368 223.381 1.54713 224.045 1.54065L224.036 0.540698C223.371 0.54718 222.708 0.55373 222.045 0.560347L222.055 1.5603ZM237.056 1.42353C237.716 1.41809 238.377 1.41272 239.039 1.40743L239.031 0.40746C238.369 0.412754 237.708 0.418122 237.048 0.423562L237.056 1.42353ZM252.026 1.3137C252.696 1.3094 253.367 1.30518 254.038 1.30103L254.032 0.30105C253.361 0.305195 252.69 0.30942 252.02 0.313725L252.026 1.3137ZM266.983 1.23166C267.65 1.22863 268.317 1.22569 268.985 1.22284L268.981 0.222848C268.313 0.225704 267.645 0.228644 266.978 0.231669L266.983 1.23166ZM281.96 1.17845C282.625 1.17675 283.29 1.17514 283.956 1.17362L283.953 0.173622C283.288 0.175143 282.622 0.176754 281.957 0.178453L281.96 1.17845ZM296.947 1.15559C297.611 1.15527 298.275 1.15505 298.939 1.15492L298.939 0.154916C298.275 0.155045 297.611 0.155269 296.947 0.155586L296.947 1.15559ZM311.924 1.16465C312.591 1.16579 313.258 1.16703 313.925 1.16837L313.927 0.168374C313.259 0.167033 312.592 0.165793 311.926 0.164654L311.924 1.16465ZM326.892 1.20734C327.558 1.21002 328.224 1.2128 328.89 1.21568L328.894 0.215694C328.228 0.212806 327.562 0.210024 326.896 0.207349L326.892 1.20734ZM341.871 1.28568C342.536 1.28999 343.201 1.2944 343.867 1.29893L343.874 0.298955C343.208 0.294425 342.543 0.290008 341.877 0.285703L341.871 1.28568ZM356.845 1.40186C357.512 1.40791 358.178 1.41407 358.844 1.42036L358.853 0.420404C358.187 0.414117 357.521 0.407951 356.855 0.401903L356.845 1.40186ZM371.815 1.55837C372.48 1.56625 373.144 1.57426 373.808 1.58239L373.82 0.582467C373.156 0.574331 372.492 0.566322 371.827 0.558438L371.815 1.55837ZM386.798 1.7583C387.463 1.76818 388.127 1.77819 388.791 1.78834L388.806 0.788454C388.142 0.778305 387.478 0.768292 386.813 0.758411L386.798 1.7583ZM401.775 2.00476C402.441 2.01682 403.107 2.02901 403.772 2.04135L403.791 1.04152C403.125 1.02918 402.459 1.01698 401.793 1.00493L401.775 2.00476ZM416.735 2.30126C417.404 2.3157 418.072 2.33029 418.74 2.34503L418.762 1.34528C418.094 1.33053 417.426 1.31594 416.757 1.30149L416.735 2.30126ZM431.695 2.65243C432.358 2.66929 433.02 2.6863 433.682 2.70348L433.708 1.70382C433.046 1.68663 432.383 1.66961 431.72 1.65276L431.695 2.65243ZM446.687 3.06442C447.349 3.08405 448.011 3.10385 448.672 3.12382L448.703 2.12428C448.041 2.1043 447.379 2.08449 446.716 2.06486L446.687 3.06442ZM461.664 3.54218C462.329 3.56497 462.994 3.58795 463.658 3.61112L463.692 2.61173C463.029 2.58855 462.364 2.56556 461.698 2.54276L461.664 3.54218ZM476.621 4.09255C477.289 4.11892 477.957 4.1455 478.624 4.17228L478.664 3.17309C477.997 3.14629 477.329 3.1197 476.66 3.09332L476.621 4.09255ZM491.552 4.72385C492.225 4.7543 492.897 4.78498 493.568 4.81589L493.614 3.81695C492.943 3.78603 492.271 3.75533 491.597 3.72487L491.552 4.72385ZM506.493 5.4482C506.82 5.46518 507.147 5.48222 507.474 5.49932L507.526 4.50069C507.199 4.48358 506.872 4.46653 506.545 4.44955L506.493 5.4482ZM507.474 5.49932C507.812 5.517 508.149 5.53461 508.487 5.55217L508.539 4.55352C508.201 4.53597 507.864 4.51836 507.526 4.50069L507.474 5.49932ZM521.623 6.20968C522.298 6.24216 522.972 6.27445 523.646 6.30653L523.693 5.30766C523.02 5.27559 522.346 5.24331 521.671 5.21084L521.623 6.20968ZM536.783 6.90967C537.458 6.93958 538.133 6.96931 538.808 6.99888L538.852 5.99984C538.177 5.97028 537.502 5.94055 536.827 5.91065L536.783 6.90967ZM551.945 7.5559C552.621 7.58366 553.296 7.61128 553.972 7.63876L554.013 6.63958C553.337 6.61211 552.662 6.5845 551.986 6.55674L551.945 7.5559ZM567.11 8.15826C567.787 8.18428 568.462 8.21019 569.138 8.23599L569.176 7.23672C568.501 7.21092 567.825 7.18502 567.149 7.159L567.11 8.15826ZM582.278 8.72676C582.954 8.7515 583.63 8.77616 584.305 8.80074L584.341 7.8014C583.666 7.77682 582.99 7.75216 582.314 7.72743L582.278 8.72676ZM597.446 9.27189C598.122 9.29583 598.797 9.31971 599.473 9.34355L599.508 8.34417C598.833 8.32034 598.157 8.29645 597.481 8.27252L597.446 9.27189ZM612.614 9.80463C613.29 9.82825 613.965 9.85186 614.64 9.87546L614.675 8.87607C614 8.85247 613.325 8.82886 612.649 8.80524L612.614 9.80463ZM627.782 10.3364C628.458 10.3603 629.133 10.3841 629.807 10.408L629.843 9.40864C629.168 9.38476 628.493 9.3609 627.818 9.33706L627.782 10.3364ZM642.949 10.8794C643.624 10.904 644.299 10.9287 644.973 10.9534L645.01 9.95409C644.335 9.92937 643.661 9.90471 642.986 9.8801L642.949 10.8794ZM658.115 11.4465C658.789 11.4724 659.463 11.4984 660.136 11.5246L660.175 10.5253C659.501 10.4992 658.828 10.4731 658.153 10.4472L658.115 11.4465ZM673.277 12.0511C673.95 12.079 674.623 12.1071 675.296 12.1353L675.338 11.1361C674.665 11.108 673.992 11.0799 673.318 11.052L673.277 12.0511ZM688.435 12.7081C689.107 12.7386 689.779 12.7693 690.45 12.8002L690.496 11.8013C689.825 11.7704 689.153 11.7397 688.48 11.7091L688.435 12.7081ZM703.586 13.433C704.257 13.4669 704.928 13.501 705.598 13.5353L705.649 12.5366C704.979 12.5023 704.308 12.4682 703.636 12.4343L703.586 13.433ZM718.728 14.243C719.402 14.2812 720.075 14.3197 720.748 14.3584L720.805 13.3601C720.133 13.3213 719.459 13.2828 718.785 13.2446L718.728 14.243ZM733.872 15.1572C734.549 15.2007 735.225 15.2445 735.9 15.2886L735.965 14.2908C735.29 14.2466 734.613 14.2028 733.936 14.1593L733.872 15.1572ZM749.017 16.1965C749.692 16.246 750.366 16.2957 751.039 16.3459L751.113 15.3487C750.44 15.2985 749.766 15.2487 749.09 15.1992L749.017 16.1965ZM764.146 17.3825C764.818 17.4389 765.49 17.4957 766.16 17.5529L766.245 16.5565C765.574 16.4993 764.902 16.4424 764.229 16.386L764.146 17.3825ZM779.251 18.7398C779.921 18.8042 780.589 18.8691 781.257 18.9345L781.354 17.9392C780.686 17.8738 780.017 17.8088 779.347 17.7444L779.251 18.7398ZM794.326 20.2955C794.997 20.3697 795.667 20.4444 796.336 20.5198L796.448 19.5261C795.778 19.4506 795.108 19.3758 794.436 19.3015L794.326 20.2955ZM809.394 22.0841C810.066 22.1696 810.737 22.2558 811.407 22.3427L811.536 21.351C810.865 21.264 810.193 21.1777 809.52 21.0921L809.394 22.0841ZM824.43 24.1391C825.097 24.2369 825.763 24.3354 826.428 24.4347L826.575 23.4457C825.91 23.3463 825.243 23.2476 824.575 23.1496L824.43 24.1391ZM839.401 26.4966C840.062 26.6083 840.722 26.7209 841.381 26.8343L841.55 25.8488C840.89 25.7352 840.229 25.6225 839.567 25.5106L839.401 26.4966ZM854.315 29.2043C854.981 29.334 855.645 29.4647 856.308 29.5964L856.503 28.6155C855.839 28.4836 855.173 28.3527 854.506 28.2228L854.315 29.2043ZM869.165 32.3154C869.822 32.4632 870.478 32.6121 871.132 32.7621L871.355 31.7874C870.7 31.6371 870.043 31.4879 869.385 31.3398L869.165 32.3154ZM883.879 35.8762C884.534 36.0465 885.188 36.2181 885.84 36.391L886.096 35.4244C885.442 35.2511 884.787 35.0791 884.13 34.9083L883.879 35.8762ZM898.49 39.9668C899.136 40.1613 899.78 40.3573 900.423 40.5546L900.717 39.5987C900.072 39.4008 899.426 39.2043 898.778 39.0093L898.49 39.9668ZM912.888 44.6396C913.204 44.7499 913.519 44.8605 913.834 44.9715L914.166 44.0285C913.851 43.9172 913.535 43.8062 913.218 43.6956L912.888 44.6396Z" fill="url(#paint0_linear_15_33)"/>
<defs>
<linearGradient id="paint0_linear_15_33" x1="179.5" y1="-132.5" x2="840" y2="778" gradientUnits="userSpaceOnUse">
<stop stop-color="#010101"/>
<stop offset="1" stop-color="#850000"/>
</linearGradient>
</defs>
</svg>
